@startuml

title __CONTROLLER's Class Diagram__\n

  package controller {
    class ATMTest {
        - alertFN : String
        + setUp()
        + testAlerts()
    }
  }
  

  package controller {
    class BankSystemTest {
        - recordFileName : String
        + setUp()
        + testGainInterest()
    }
  }
  

  ATMTest o-- ATM : atm
  BankSystemTest o-- BankSystem : bankSystem


right footer


PlantUML diagram generated by SketchIt! (https://bitbucket.org/pmesmeur/sketch.it)
For more information about this tool, please contact philippe.mesmeur@gmail.com
endfooter

@enduml
